<svg xmlns="http://www.w3.org/2000/svg" width="1382" height="1040" viewBox="0 0 1382 1040" fill="#000000">
  <g transform="translate(0,1040) scale(0.1,-0.1)">
    <path d="M2556 6721 c-58 -116 -106 -213 -106 -216 0 -3 56 -5 125 -5 l125 0
0 -730 0 -730 253 2 252 3 0 725 0 725 362 0 363 0 27 -28 28 -27 2 -193 2
-193 -28 -35 -29 -34 -206 -3 -206 -3 -103 -202 c-56 -111 -103 -208 -105
-214 -3 -10 79 -13 387 -13 214 0 400 4 413 9 13 5 102 87 199 183 130 127
178 181 183 203 3 17 4 188 3 380 -2 340 -3 351 -25 399 -37 80 -85 132 -160
168 l-67 33 -792 3 -792 3 -105 -210z"/>
    <path d="M5022 5458 l3 -723 26 -56 c34 -72 95 -134 167 -167 l57 -27 550 -3
c303 -2 566 0 585 3 28 5 68 40 205 175 94 93 175 182 181 197 7 18 10 206 9
548 -1 513 -1 521 -23 568 -45 99 -107 157 -205 190 -42 14 -99 16 -418 14
l-370 -2 -109 -212 -109 -212 334 -3 335 -3 27 -28 28 -27 1 -357 1 -356 -28
-31 -27 -31 -334 -3 -334 -3 -23 25 -23 25 1 610 2 611 -256 0 -256 0 3 -722z"/>
    <path d="M7302 5458 l3 -723 26 -56 c34 -72 95 -134 167 -167 l57 -27 550 -3
c303 -2 566 0 585 3 28 5 68 40 205 175 94 93 175 182 181 197 7 18 10 206 9
548 -1 513 -1 521 -23 568 -45 99 -107 157 -205 190 -42 14 -99 16 -418 14
l-370 -2 -109 -212 -109 -212 334 -3 335 -3 27 -28 28 -27 1 -357 1 -356 -28
-31 -27 -31 -334 -3 -334 -3 -23 25 -23 25 1 610 2 611 -256 0 -256 0 3 -722z"/>
    <path d="M9757 6173 c-3 -4 -53 -101 -111 -215 l-107 -208 682 -2 681 -3 24
-30 24 -30 0 -353 c0 -223 -4 -360 -10 -373 -23 -41 -60 -49 -233 -49 l-163 0
-63 -132 c-34 -73 -79 -169 -100 -213 l-38 -80 346 -3 c215 -2 359 1 381 7 25
8 83 58 210 186 l175 175 0 543 c0 531 0 543 -21 587 -32 67 -95 132 -160 165
l-59 30 -727 3 c-399 1 -729 -1 -731 -5z"/>
    <path d="M9767 5593 c-2 -5 -3 -469 -3 -1033 l1 -1025 253 -3 252 -2 0 1035 0
1035 -249 0 c-138 0 -252 -3 -254 -7z"/>
    <path d="M4007 5462 c-15 -3 -17 -24 -18 -230 0 -125 -2 -236 -4 -246 -2 -11
-15 -31 -30 -45 l-25 -26 -634 -3 -633 -2 -107 -209 c-58 -115 -106 -212 -106
-215 0 -11 1637 -7 1667 5 38 14 360 335 372 371 5 15 10 155 11 313 l1 285
-103 1 c-57 1 -164 2 -238 3 -75 0 -143 0 -153 -2z"/>
  </g>
</svg>
